<?xml version="1.0" standalone="no"?><!DOCTYPE svg PUBLIC "-//W3C//DTD SVG 1.1//EN" "http://www.w3.org/Graphics/SVG/1.1/DTD/svg11.dtd"><svg t="1733150559019" class="icon" viewBox="0 0 1060 1024" version="1.1" xmlns="http://www.w3.org/2000/svg" p-id="19408" xmlns:xlink="http://www.w3.org/1999/xlink" width="207.03125" height="200"><path d="M0 0h1060.571429v1024H0z" fill="#FFFFFF" p-id="19409"></path><path d="M65.024 929.499429h367.030857v65.901714H65.024z" fill="#266CFF" p-id="19410"></path><path d="M110.774857 870.912h366.006857v58.624H110.774857z" fill="#FFFFFF" p-id="19411"></path><path d="M476.818286 931.328H110.774857a1.828571 1.828571 0 0 1-1.828571-1.828571v-58.514286a1.828571 1.828571 0 0 1 1.828571-1.828572h366.043429a1.828571 1.828571 0 0 1 1.828571 1.828572v58.514286a1.828571 1.828571 0 0 1-1.828571 1.828571z m-364.214857-3.657143h362.386285v-54.857143H112.603429z" p-id="19412"></path><path d="M436.992 683.885714s-45.056-21.430857-164.571429-10.971428c-122.294857 10.971429-160.365714 39.533714-160.365714 39.533714L73.362286 272.164571s32.914286-28.269714 160.256-39.460571c120.905143-10.642286 164.571429 10.971429 164.571428 10.971429zM762.331429 655.981714s-45.056-21.394286-164.571429-10.971428c-122.185143 10.752-160.256 39.460571-160.256 39.460571L398.628571 244.260571s32.914286-28.269714 160.256-39.460571c120.905143-10.605714 164.571429 10.971429 164.571429 10.971429z" fill="#DDE8FF" p-id="19413"></path><path d="M113.627429 264.082286l-4.425143-50.432s32.914286-28.306286 160.256-39.497143c120.905143-10.605714 164.571429 10.971429 164.571428 10.971428L472.832 625.371429s-20.809143-9.910857-71.68-12.946286a616.301714 616.301714 0 0 0-84.955429 1.353143l-8.045714 0.658285C185.965714 625.371429 147.894857 653.897143 147.894857 653.897143L135.314286 509.220571l-3.328-38.107428M798.171429 597.467429s-45.056-21.430857-164.571429-10.971429c-122.185143 10.752-160.256 39.497143-160.256 39.497143L434.541714 185.746286s32.914286-28.306286 160.256-39.460572c120.905143-10.642286 164.571429 10.971429 164.571429 10.971429z" fill="#FFFFFF" p-id="19414"></path><path d="M333.933714 612.864c-5.741714 0.329143-11.629714 0.731429-17.737143 1.206857l-8.045714 0.658286c-122.185143 10.642286-160.256 39.460571-160.256 39.460571L135.314286 509.513143l-3.328-38.144" fill="#FFFFFF" p-id="19415"></path><path d="M147.894857 656.018286a1.645714 1.645714 0 0 1-0.731428 0 1.865143 1.865143 0 0 1-1.097143-1.536l-16.054857-182.857143a1.828571 1.828571 0 0 1 3.657142-0.329143L149.430857 650.971429c10.496-6.509714 53.284571-28.818286 158.537143-38.070858l8.082286-0.658285q9.179429-0.694857 17.773714-1.206857a1.865143 1.865143 0 0 1 1.938286 1.755428 1.828571 1.828571 0 0 1-1.755429 1.901714c-5.668571 0.329143-11.593143 0.731429-17.664 1.206858l-8.045714 0.658285c-119.990857 10.532571-158.939429 38.802286-159.305143 39.094857a1.718857 1.718857 0 0 1-1.097143 0.365715z" p-id="19416"></path><path d="M120.685714 344.210286l-11.483428-130.304s32.914286-28.269714 160.256-39.460572c120.905143-10.605714 164.571429 10.971429 164.571428 10.971429l38.692572 440.283428s-20.809143-9.874286-71.68-12.909714" fill="#FFFFFF" p-id="19417"></path><path d="M472.832 627.456a2.084571 2.084571 0 0 1-0.804571 0s-21.174857-9.801143-70.985143-12.763429a1.901714 1.901714 0 0 1-1.718857-1.938285 1.792 1.792 0 0 1 1.938285-1.718857c40.740571 2.413714 62.171429 9.142857 69.485715 11.922285L432.420571 186.514286c-6.912-2.889143-53.284571-19.931429-162.816-10.313143C154.587429 186.514286 116.589714 210.797714 111.104 214.747429l11.373714 129.28a1.865143 1.865143 0 0 1-1.645714 2.011428 1.865143 1.865143 0 0 1-2.011429-1.682286l-11.446857-130.267428a1.901714 1.901714 0 0 1 0.658286-1.572572c1.353143-1.170286 34.925714-28.781714 161.28-39.899428 120.027429-10.532571 163.84 10.203429 165.632 10.971428a1.792 1.792 0 0 1 1.024 1.462858L474.660571 625.371429a1.828571 1.828571 0 0 1-0.804571 1.645714 1.718857 1.718857 0 0 1-1.024 0.438857z" p-id="19418"></path><path d="M798.171429 597.76s-45.056-21.430857-164.571429-10.971429c-122.185143 10.752-160.256 39.460571-160.256 39.460572L434.541714 186.002286s32.914286-28.269714 160.256-39.460572c120.905143-10.605714 164.571429 10.971429 164.571429 10.971429z" fill="#FFFFFF" p-id="19419"></path><path d="M473.234286 628.114286a1.645714 1.645714 0 0 1-0.731429 0 1.828571 1.828571 0 0 1-1.097143-1.499429L432.713143 186.185143a1.974857 1.974857 0 0 1 0.621714-1.572572c1.389714-1.170286 34.962286-28.781714 161.316572-39.862857 120.027429-10.569143 163.84 10.203429 165.632 10.971429a1.865143 1.865143 0 0 1 1.024 1.462857l38.692571 440.393143a1.938286 1.938286 0 0 1-0.804571 1.682286 1.828571 1.828571 0 0 1-1.828572 0c-0.438857-0.219429-46.153143-21.101714-163.730286-10.752-119.990857 10.532571-158.939429 38.838857-159.305142 39.094857a1.718857 1.718857 0 0 1-1.097143 0.512zM436.443429 186.88l38.326857 436.187429c10.496-6.509714 53.284571-28.818286 158.537143-38.070858 103.68-9.106286 151.113143 5.449143 162.779428 9.910858L757.76 158.72c-6.912-2.889143-53.321143-19.968-162.816-10.349714-115.017143 10.130286-153.014857 34.486857-158.500571 38.509714z" p-id="19420"></path><path d="M953.344 437.942857s14.811429 9.508571 27.428571 19.675429c29.074286 23.405714 50.651429 52.260571 44.836572 56.978285-8.557714 6.985143-55.222857-20.224-46.006857-31.122285 7.606857-8.996571 46.628571 53.138286 41.984 59.611428s-66.230857-34.011429-58.514286-42.788571 57.234286 46.701714 47.542857 55.698286c-7.716571 7.058286-67.913143-35.437714-62.500571-41.764572 7.314286-8.484571 64.512 41.984 50.614857 56.356572-7.753143 7.972571-28.489143-24.612571-60.306286-40.228572-10.349714-5.010286 21.357714 28.525714 4.681143 26.88s-48.859429-62.171429-48.859429-62.171428z" fill="#FFFFFF" p-id="19421"></path><path d="M995.730286 573.732571c-4.937143 0-11.556571-5.924571-20.443429-13.933714a176.457143 176.457143 0 0 0-36.059428-26.806857c0.768 1.353143 1.792 2.998857 2.706285 4.461714 5.668571 9.033143 9.508571 15.689143 7.131429 19.565715a5.997714 5.997714 0 0 1-6.253714 2.157714c-17.188571-1.718857-46.957714-56.868571-50.285715-63.158857l-0.658285-1.206857 61.257142-59.209143 1.206858 0.804571s15.030857 9.691429 27.574857 19.785143c24.758857 19.894857 46.445714 46.043429 46.482285 55.954286a4.827429 4.827429 0 0 1-1.609142 3.876571c-2.742857 2.230857-8.118857 1.792-14.299429-0.256 7.643429 12.690286 13.092571 24.905143 10.605714 28.379429a4.461714 4.461714 0 0 1-4.608 1.353143 31.670857 31.670857 0 0 1-7.716571-2.56 32.914286 32.914286 0 0 1 2.377143 6.107428 7.899429 7.899429 0 0 1-1.389715 8.301714c-1.938286 1.755429-5.924571 1.353143-10.971428-0.475428a22.162286 22.162286 0 0 1 0.987428 2.706286 11.702857 11.702857 0 0 1-1.792 12.288 5.778286 5.778286 0 0 1-4.242285 1.865142z m-59.026286-45.568a6.107429 6.107429 0 0 1 2.413714 0.694858c15.616 7.606857 28.342857 19.053714 38.582857 28.233142 9.033143 8.082286 16.822857 15.067429 19.602286 12.214858a8.411429 8.411429 0 0 0 0.950857-8.630858 32.256 32.256 0 0 0-2.596571-5.888 193.097143 193.097143 0 0 1-42.971429-29.476571c-6.290286-6.070857-8.155429-9.837714-6.107428-12.251429a5.668571 5.668571 0 0 1 5.924571-1.389714c10.569143 2.194286 35.693714 23.04 45.787429 40.228572 9.142857 4.169143 10.971429 2.706286 10.971428 2.633142 0.987429-0.950857 0.731429-3.072 0.292572-4.681142a38.436571 38.436571 0 0 0-4.571429-9.801143c-16.64-8.740571-40.228571-25.892571-43.885714-35.474286a5.156571 5.156571 0 0 1 0.658286-5.595429 5.266286 5.266286 0 0 1 5.595428-1.316571c10.020571 2.413714 30.354286 23.369143 40.411429 39.753143 6.217143 3.254857 10.971429 5.010286 12.507428 4.352 1.024-2.413714-5.156571-15.213714-13.202285-28.196572a83.785143 83.785143 0 0 1-24.539429-16.091428c-7.68-7.789714-6.582857-12.617143-4.352-15.286857 1.462857-1.682286 4.278857-2.852571 9.545143 1.28s14.116571 15.433143 21.613714 27.172571c7.058286 2.925714 13.056 4.096 15.140572 2.413714 0.219429 0 0.256-0.694857 0.256-0.987428 0-7.826286-19.712-32.914286-45.092572-53.138286-10.349714-8.301714-22.272-16.274286-26.075428-18.761143l-57.161143 55.369143c9.362286 17.371429 34.194286 58.733714 46.774857 60.013714 1.462857 0 2.486857 0 2.779428-0.475428 1.353143-2.194286-4.352-11.300571-7.094857-15.652572-3.876571-6.180571-5.485714-8.740571-3.913143-10.496a2.230857 2.230857 0 0 1 1.755429-0.768z m13.787429-13.056a1.389714 1.389714 0 0 0-1.097143 0.329143c-0.292571 3.657143 21.76 22.272 42.459428 33.389715-10.971429-15.177143-31.305143-31.744-40.228571-33.572572a5.705143 5.705143 0 0 0-1.133714-0.146286zM965.485714 501.028571a1.243429 1.243429 0 0 0-0.950857 0.329143c-0.512 0.548571-0.256 2.194286 1.974857 5.156572 6.290286 8.374857 21.504 19.456 34.230857 26.953143-10.24-14.336-26.368-30.390857-34.194285-32.292572a5.302857 5.302857 0 0 0-1.060572-0.146286z m16.128-16.749714a0.694857 0.694857 0 0 0-0.585143 0.256c-2.450286 2.852571 1.536 7.716571 4.132572 10.349714a74.532571 74.532571 0 0 0 18.285714 12.909715c-6.619429-9.947429-13.933714-19.090286-19.346286-22.528a6.070857 6.070857 0 0 0-2.523428-0.841143zM281.6 744.667429a1.828571 1.828571 0 0 1-1.682286-1.097143 1.901714 1.901714 0 0 1 0.987429-2.413715C303.542857 731.428571 324.827429 706.486857 329.142857 683.885714a37.851429 37.851429 0 0 0-1.060571-20.260571 53.577143 53.577143 0 0 1-12.434286 6.144c-8.594286 2.779429-15.798857 1.572571-20.736-3.437714a16.786286 16.786286 0 0 1-0.438857-23.369143c5.522286-5.449143 15.945143-6.729143 28.598857 6.070857a36.571429 36.571429 0 0 1 6.765714 9.252571c22.710857-16.457143 47.542857-51.785143 52.699429-85.979428a1.828571 1.828571 0 1 1 3.657143 0.548571c-5.449143 35.291429-31.195429 71.826286-54.857143 88.758857a41.142857 41.142857 0 0 1 1.536 23.149715c-4.681143 23.552-26.953143 49.810286-50.688 59.794285a1.755429 1.755429 0 0 1-0.585143 0.109715z m22.857143-101.814858a9.910857 9.910857 0 0 0-7.131429 2.816 13.092571 13.092571 0 0 0 0.475429 18.285715c3.986286 4.022857 9.691429 4.864 17.042286 2.486857a50.395429 50.395429 0 0 0 12.105142-6.034286 34.048 34.048 0 0 0-6.180571-8.630857c-6.546286-6.546286-12.105143-8.923429-16.457143-8.923429z" fill="#1E232A" p-id="19422"></path><path d="M729.270857 459.556571l137.801143 111.652572 9.654857-36.681143-98.816-74.971429" fill="#266CFF" p-id="19423"></path><path d="M868.754286 573.330286l-140.617143-112.347429a1.792 1.792 0 0 1-0.292572-2.56 1.792 1.792 0 0 1 2.56-0.292571L866.742857 566.857143l8.630857-32.914286-97.865143-74.24a1.828571 1.828571 0 0 1 2.230858-2.925714l99.766857 75.702857z" fill="#FFFFFF" p-id="19424"></path><path d="M859.099429 539.392m-5.485715 0a5.485714 5.485714 0 1 0 10.971429 0 5.485714 5.485714 0 1 0-10.971429 0Z" fill="#FFFFFF" p-id="19425"></path><path d="M892.342857 508.781714c-2.889143-2.669714-70.912-65.060571-99.620571-94.573714-36.864-37.851429-101.266286-68.571429-122.989715-77.202286l36.571429-91.757714c3.986286 1.609143 98.267429 39.533714 157.257143 100.096 26.770286 27.501714 94.902857 90.038857 95.597714 90.660571z" fill="#FFC200" p-id="19426"></path><path d="M750.372571 284.672a20.882286 20.882286 0 0 1-9.984-2.523429 21.174857 21.174857 0 0 1-8.630857-28.635428 1.828571 1.828571 0 1 1 3.218286 1.755428 17.481143 17.481143 0 0 0 7.131429 23.661715 17.481143 17.481143 0 0 0 23.698285-7.314286 1.792 1.792 0 0 1 2.450286-0.731429 1.792 1.792 0 0 1 0.768 2.450286 20.992 20.992 0 0 1-12.544 10.276572 21.942857 21.942857 0 0 1-6.107429 1.060571zM768.475429 297.691429a1.828571 1.828571 0 0 1-1.133715-0.365715 1.865143 1.865143 0 0 1-0.329143-2.596571l18.285715-22.966857a1.828571 1.828571 0 0 1 2.56-0.292572 1.792 1.792 0 0 1 0.292571 2.56l-18.102857 22.966857a1.792 1.792 0 0 1-1.572571 0.694858zM780.178286 306.797714a1.974857 1.974857 0 0 1-1.133715-0.365714 1.901714 1.901714 0 0 1-0.292571-2.596571l18.102857-22.966858a1.901714 1.901714 0 0 1 2.596572-0.292571 1.828571 1.828571 0 0 1 0.292571 2.56l-18.285714 22.966857a1.828571 1.828571 0 0 1-1.28 0.694857z" fill="#FFFFFF" p-id="19427"></path><path d="M518.436571 423.424a83.346286 83.346286 0 0 1-44.397714-12.726857l-79.652571-36.571429 41.362285-89.673143 82.432 37.997715 108.8-60.123429 47.762286 86.272-109.458286 60.489143a83.382857 83.382857 0 0 1-46.848 14.336z" fill="#FFC200" p-id="19428"></path><path d="M404.406857 319.890286m-41.545143 0a41.545143 41.545143 0 1 0 83.090286 0 41.545143 41.545143 0 1 0-83.090286 0Z" fill="#F7931E" p-id="19429"></path><path d="M627.273143 458.532571l36.571428 1.024 131.218286-2.450285s-9.581714-117.028571-47.323428-175.542857c-13.860571-21.504-39.606857-51.712-84.406858-31.890286l-23.259428 2.121143c-59.355429 31.597714-32.914286 96.438857-26.660572 133.339428 7.277714 42.313143 13.860571 73.398857 13.860572 73.398857z" fill="#FF7E00" p-id="19430"></path><path d="M650.971429 244.041143A34.267429 34.267429 0 0 1 610.011429 230.4a36.059429 36.059429 0 0 1-3.072-6.180571l-8.374858-22.418286a34.011429 34.011429 0 0 1 20.150858-43.556572 34.157714 34.157714 0 0 1 43.885714 19.748572l8.411428 22.418286a33.462857 33.462857 0 0 1 1.901715 10.605714 34.194286 34.194286 0 0 1-21.942857 33.024z" fill="#FFFFFF" p-id="19431"></path><path d="M660.224 257.938286c-11.154286 3.218286-21.613714 6.656-23.990857-1.572572l-12.032-41.472C621.714286 206.665143 629.028571 197.485714 640 194.084571s22.198857 0.877714 24.576 9.106286l2.523429 8.704 9.508571 32.914286c2.486857 8.082286-5.266286 9.910857-16.384 13.129143z" fill="#FFFFFF" p-id="19432"></path><path d="M619.337143 223.744c32.365714 21.504 53.101714-18.944 53.101714-18.944s7.314286-5.595429 5.449143-23.990857a138.093714 138.093714 0 0 0-8.630857-31.561143c-3.657143-9.179429-10.422857-21.065143-28.525714-21.540571-17.444571-0.438857-24.612571 5.741714-32.914286 3.401142-10.642286-2.962286-29.257143 15.762286-19.273143 24.210286 0 0-21.248 18.688-1.572571 34.157714 5.778286 4.352 26.88 30.646857 32.365714 34.267429z" fill="#1E232A" p-id="19433"></path><path d="M683.52 247.734857a12.982857 12.982857 0 0 1-10.422857-6.363428c-3.986286-5.632-5.741714-13.933714-3.876572-18.285715 3.949714-8.850286 1.718857-23.515429 1.718858-23.661714a1.828571 1.828571 0 0 1 1.499428-2.084571 1.865143 1.865143 0 0 1 2.084572 1.536c0 0.621714 2.413714 15.872-1.974858 25.6-1.206857 2.706286 0 9.654857 3.657143 14.628571a9.325714 9.325714 0 0 0 7.899429 4.754286 1.938286 1.938286 0 0 1 1.974857 1.682285 1.828571 1.828571 0 0 1-1.682286 1.974858z" fill="#191919" p-id="19434"></path><path d="M637.403429 247.990857a35.949714 35.949714 0 0 1-29.001143-16.713143c-1.024-1.645714-13.714286-32.585143-16.237715-38.765714a1.792 1.792 0 0 1 0.987429-2.377143 1.828571 1.828571 0 0 1 2.377143 0.987429c5.961143 14.628571 15.140571 36.827429 15.981714 38.290285a31.890286 31.890286 0 0 0 26.148572 14.921143 1.828571 1.828571 0 0 1 0 3.657143z" fill="#1E232A" p-id="19435"></path><path d="M581.046857 161.974857c-0.877714-5.522286 0-18.285714 4.754286-25.161143 2.998857-4.352 10.203429-3.657143 10.203428-3.657143 16.566857-16.164571 43.410286-32.914286 57.014858-27.830857 3.364571 1.243429 16.201143 25.051429 15.286857 35.657143l12.178285 7.314286c4.022857 14.628571 0 20.955429-8.850285 23.186286a124.086857 124.086857 0 0 1-90.587429-9.508572z" fill="#FF5D5E" p-id="19436"></path><path d="M659.529143 159.634286a143.762286 143.762286 0 0 1-72.228572-18.688 1.645714 1.645714 0 1 1 1.792-2.742857A142.884571 142.884571 0 0 0 680.228571 154.916571a1.682286 1.682286 0 0 1 1.865143 1.389715 1.682286 1.682286 0 0 1-1.389714 1.865143 152.502857 152.502857 0 0 1-21.174857 1.462857zM553.508571 973.750857a1.865143 1.865143 0 0 1-1.865142-1.792 57.709714 57.709714 0 0 1 22.820571-45.202286c24.466286-18.944 57.819429-8.886857 59.209143-8.448a1.865143 1.865143 0 0 1-1.097143 3.657143c-0.329143 0-32.914286-9.910857-55.844571 7.826286a54.857143 54.857143 0 0 0-21.357715 42.093714 1.865143 1.865143 0 0 1-1.792 1.938286zM587.373714 912.493714l90.843429-0.438857-0.365714-105.435428-90.843429 36.534857 0.365714 69.339428z" fill="#FFFFFF" p-id="19437"></path><path d="M585.545143 914.285714l-0.365714-72.448 94.500571-37.997714 0.365714 109.970286z m3.328-69.997714l0.292571 66.340571 87.222857-0.438857-0.329142-100.900571z" fill="#1E232A" p-id="19438"></path><path d="M680.667429 887.552c-30.756571 3.657143-25.014857 19.382857-50.797715 20.809143-18.285714 0.987429-29.878857-16.054857-47.140571-20.041143-1.353143 2.669714-9.179429 26.075429-43.483429 38.875429s-44.470857 29.257143-43.885714 50.614857c38.436571 0.329143 186.514286-0.365714 186.514286-0.365715s-1.28-80.310857-1.206857-89.892571z" fill="#FF4A55" p-id="19439"></path><path d="M558.848 927.634286c-6.875429 0-13.604571-1.024-17.517714-4.242286a9.764571 9.764571 0 0 1-3.657143-8.228571 23.296 23.296 0 0 1 2.084571-9.508572 33.426286 33.426286 0 0 1-13.129143-14.262857 11.666286 11.666286 0 0 1 4.498286-13.421714 16.054857 16.054857 0 0 1 14.372572-3.876572c18.614857 3.986286 35.364571 38.509714 36.096 39.972572a1.865143 1.865143 0 0 1-0.512 2.230857 1.938286 1.938286 0 0 1-2.304 0c-6.034286-4.864-23.625143-16.603429-32.146286-12.690286a7.314286 7.314286 0 0 0-1.718857 1.133714 166.363429 166.363429 0 0 0 34.962285 16.018286 1.572571 1.572571 0 0 1 1.243429 0.585143 1.828571 1.828571 0 0 1 0.475429 3.657143 114.651429 114.651429 0 0 1-22.747429 2.633143z m-15.945143-19.931429a20.443429 20.443429 0 0 0-1.499428 7.606857 6.107429 6.107429 0 0 0 2.267428 5.266286c5.668571 4.717714 20.626286 3.657143 30.573714 2.048a175.542857 175.542857 0 0 1-31.341714-14.921143z m7.753143-8.484571c7.972571 0 17.737143 5.412571 24.064 9.581714-5.851429-10.203429-17.773714-28.562286-29.915429-31.158857a12.507429 12.507429 0 0 0-11.227428 3.108571 8.228571 8.228571 0 0 0-3.657143 8.923429c1.206857 4.352 5.851429 8.850286 11.885714 12.982857a10.971429 10.971429 0 0 1 3.328-2.377143 12.836571 12.836571 0 0 1 5.522286-1.060571z" fill="#1E232A" p-id="19440"></path><path d="M598.674286 974.006857a1.865143 1.865143 0 0 1-1.865143-1.792c0-0.841143-0.804571-21.467429 22.528-39.533714 24.137143-18.688 57.014857-8.777143 58.514286-8.338286a1.865143 1.865143 0 0 1 1.243428 2.340572 1.828571 1.828571 0 0 1-2.340571 1.206857c-0.329143 0-32.438857-9.728-54.857143 7.716571-21.942857 16.896-21.101714 36.242286-21.101714 36.571429a1.901714 1.901714 0 0 1-1.792 1.974857zM584.301714 927.122286a8.301714 8.301714 0 0 1-7.314285-12.141715 8.301714 8.301714 0 1 1 14.628571 7.68 8.228571 8.228571 0 0 1-7.314286 4.461715z m-4.022857-10.386286a4.534857 4.534857 0 0 0 1.938286 6.144 4.571429 4.571429 0 1 0 4.205714-8.118857 4.534857 4.534857 0 0 0-6.144 1.974857zM942.299429 952.027429a1.901714 1.901714 0 0 1-1.865143-1.645715 54.857143 54.857143 0 0 0-27.940572-38.070857c-25.6-13.787429-56.027429 1.206857-56.356571 1.353143a1.828571 1.828571 0 0 1-2.486857-0.804571 1.865143 1.865143 0 0 1 0.841143-2.523429c1.316571-0.658286 32.548571-16.018286 59.794285-1.316571a57.709714 57.709714 0 0 1 29.878857 40.886857 1.901714 1.901714 0 0 1-1.645714 2.084571zM899.218286 897.060571l-89.709715 14.336-17.188571-88.100571 86.528-11.483429 20.370286 85.248z" fill="#FFFFFF" p-id="19441"></path><path d="M808.228571 913.481143l-17.883428-91.757714 90.075428-11.958858 21.248 88.795429z m-13.568-88.649143l16.493715 84.48 86.016-13.750857-19.529143-81.737143z" fill="#1E232A" p-id="19442"></path><path d="M803.072 887.625143c30.976-1.462857 27.867429 15.067429 53.540571 12.251428 18.285714-1.974857 26.88-20.699429 43.264-27.428571 1.755429 2.413714 13.312 24.210286 49.225143 31.268571s48.603429 21.467429 51.638857 42.788572c-37.851429 6.582857-183.954286 29.988571-183.954285 29.988571s-12.214857-79.396571-13.714286-88.868571z" fill="#FF4A55" p-id="19443"></path><path d="M815.067429 978.614857a1.938286 1.938286 0 0 1-1.097143-0.329143 1.974857 1.974857 0 0 1-0.768-1.243428c0-0.804571-12.032-79.506286-13.677715-88.832a2.011429 2.011429 0 0 1 0.402286-1.499429 1.974857 1.974857 0 0 1 1.353143-0.694857 47.542857 47.542857 0 0 1 30.208 7.131429 32.292571 32.292571 0 0 0 23.222857 5.156571c9.764571-1.060571 16.676571-7.314286 23.990857-13.970286a67.145143 67.145143 0 0 1 18.724572-13.348571 1.865143 1.865143 0 0 1 2.230857 0.621714l0.658286 0.987429c12.397714 19.2 32.658286 26.660571 47.542857 29.586285 33.755429 6.619429 49.664 19.894857 53.138285 44.361143a1.865143 1.865143 0 0 1-1.536 2.084572c-37.449143 6.509714-182.528 29.732571-183.990857 29.988571z m-11.52-88.941714c2.304 14.153143 11.373714 73.618286 13.092571 84.955428 16.822857-2.706286 142.628571-22.893714 180.260571-29.257142-3.657143-21.467429-18.797714-33.316571-49.883428-39.424-15.36-3.035429-36.388571-10.971429-49.554286-30.793143a67.693714 67.693714 0 0 0-16.237714 12.068571c-7.314286 6.729143-15.177143 13.714286-26.112 14.921143a35.913143 35.913143 0 0 1-25.6-5.632 43.300571 43.300571 0 0 0-25.965714-6.838857z" fill="#FFFFFF" p-id="19444"></path><path d="M907.629714 909.092571a1.865143 1.865143 0 0 1-1.792-1.499428 20.004571 20.004571 0 0 1 2.413715-3.291429 214.637714 214.637714 0 0 0 33.462857-33.609143 8.630857 8.630857 0 0 0-1.828572-0.292571c-10.971429-1.097143-26.88 20.224-32.109714 28.525714a1.865143 1.865143 0 0 1-2.194286 0.768 1.865143 1.865143 0 0 1-1.170285-2.011428c0.256-1.901714 6.948571-47.030857 26.258285-59.209143a18.870857 18.870857 0 0 1 16.310857-2.048 11.958857 11.958857 0 0 1 9.545143 10.971428c0.402286 6.363429-3.657143 14.628571-9.581714 22.637715a23.625143 23.625143 0 0 1 5.632 9.216 11.227429 11.227429 0 0 1-0.877714 9.764571c-7.716571 13.531429-42.24 20.041143-43.885715 20.333714z m37.083429-36.571428a232.484571 232.484571 0 0 1-30.171429 31.122286c10.459429-2.596571 29.074286-8.338286 33.938286-16.896a7.314286 7.314286 0 0 0 0.621714-6.692572 20.662857 20.662857 0 0 0-4.388571-7.350857z m-3.949714-33.755429a14.628571 14.628571 0 0 0-8.155429 2.486857c-13.165714 8.265143-20.260571 34.706286-23.113143 48.347429 6.912-9.325714 19.748571-24.283429 30.72-23.186286a11.812571 11.812571 0 0 1 3.657143 1.060572c5.632-7.753143 9.435429-15.250286 8.850286-20.736a8.557714 8.557714 0 0 0-6.948572-7.314286 17.005714 17.005714 0 0 0-5.010285-0.475429z" fill="#1E232A" p-id="19445"></path><path d="M897.755429 959.597714a1.865143 1.865143 0 0 1-1.828572-1.645714c0-0.182857-2.596571-19.456-26.733714-32.512-25.124571-13.568-55.259429 1.206857-55.552 1.353143a1.865143 1.865143 0 0 1-2.486857-0.841143 1.828571 1.828571 0 0 1 0.804571-2.486857c1.316571-0.658286 32.146286-15.798857 58.989714-1.316572 25.965714 14.043429 28.598857 34.523429 28.672 35.364572a1.901714 1.901714 0 0 1-1.645714 2.084571zM903.314286 911.104a6.692571 6.692571 0 0 1-1.206857 0 8.301714 8.301714 0 0 1-3.657143-14.884571 8.448 8.448 0 0 1 6.180571-1.572572 8.192 8.192 0 0 1 5.449143 3.254857 8.301714 8.301714 0 0 1-1.682286 11.629715 8.082286 8.082286 0 0 1-5.083428 1.572571z m0-12.873143a4.425143 4.425143 0 0 0-2.742857 0.914286 4.571429 4.571429 0 1 0 6.4 0.914286 4.534857 4.534857 0 0 0-2.998858-1.792z" fill="#FFFFFF" p-id="19446"></path><path d="M535.478857 815.067429l19.748572-1.974858 2.852571-120.685714a208.749714 208.749714 0 0 1 15.104-72.630857l54.089143-161.170286a0.548571 0.548571 0 0 1 0.548571-0.438857s167.277714-1.28 167.277715-0.987428l92.16 327.716571 10.971428-2.194286 15.689143 48.566857c0 0.329143-131.657143 25.965714-131.657143 25.6L724.772571 577.828571c0-0.731429-8.045714-6.107429-10.678857 2.450286L682.788571 654.628571a46.848 46.848 0 0 0-3.437714 22.601143l17.005714 174.884572c14.628571 0-161.28 0.768-161.28 0.768l0.402286-37.814857z" fill="#266CFF" p-id="19447"></path><path d="M794.660571 855.771429a1.865143 1.865143 0 0 1-1.792-1.499429 1.828571 1.828571 0 0 1 1.462858-2.121143l129.755428-24.685714a1.865143 1.865143 0 0 1 2.157714 1.462857 1.828571 1.828571 0 0 1-1.462857 2.121143L795.026286 855.771429zM628.406857 479.524571a1.828571 1.828571 0 0 1 0-3.657142l175.872-2.486858a1.828571 1.828571 0 0 1 1.828572 1.792 1.792 1.792 0 0 1-1.792 1.865143l-175.872 2.486857zM694.528 855.771429a1.828571 1.828571 0 0 1-1.792-1.682286L677.339429 676.571429a48.530286 48.530286 0 0 1 3.108571-21.942858l44.105143-113.371428a1.755429 1.755429 0 0 1 2.340571-1.024 1.828571 1.828571 0 0 1 1.060572 2.340571L683.885714 656.091429a45.604571 45.604571 0 0 0-2.889143 20.150857l15.396572 177.517714a1.828571 1.828571 0 0 1-1.645714 1.974857zM137.984 1000.228571H22.966857a1.828571 1.828571 0 1 1 0-3.657142h115.017143a1.828571 1.828571 0 1 1 0 3.657142zM680.228571 1000.228571h-186.514285a1.828571 1.828571 0 0 1 0-3.657142h186.514285a1.828571 1.828571 0 1 1 0 3.657142zM1033.947429 999.314286h-131.657143a1.828571 1.828571 0 0 1 0-3.657143h131.657143a1.828571 1.828571 0 0 1 0 3.657143zM797.257143 1000.228571h-91.428572a1.828571 1.828571 0 0 1 0-3.657142h91.428572a1.828571 1.828571 0 1 1 0 3.657142z" fill="#1E232A" p-id="19448"></path><path d="M167.460571 998.4h291.730286" fill="#FFFFFF" p-id="19449"></path><path d="M459.190857 1000.228571H167.460571a1.828571 1.828571 0 0 1 0-3.657142h291.730286a1.828571 1.828571 0 0 1 0 3.657142z" fill="#1E232A" p-id="19450"></path><path d="M435.704801 157.300868m-0.386036 61.438787a61.44 61.44 0 1 0 0.772072-122.877574 61.44 61.44 0 1 0-0.772072 122.877574Z" fill="#FFFFFF" p-id="19451"></path><path d="M440.32 242.578286a85.357714 85.357714 0 0 1-84.114286-115.858286 85.248 85.248 0 1 1 84.114286 115.858286zM432.64 98.742857a59.282286 59.282286 0 0 0-20.772571 5.046857 58.770286 58.770286 0 1 0 78.774857 74.788572A58.88 58.88 0 0 0 432.64 98.742857z" fill="#1E232A" p-id="19452"></path><path d="M435.748571 244.516571a87.186286 87.186286 0 0 1-35.437714-166.838857 87.149714 87.149714 0 1 1 40.228572 166.729143c-1.682286 0.073143-3.254857 0.109714-4.790858 0.109714z m0-170.752a83.565714 83.565714 0 1 0 4.498286 166.985143 84.114286 84.114286 0 0 0 29.513143-7.131428 83.565714 83.565714 0 0 0-34.011429-159.853715z m0 144.201143a60.672 60.672 0 0 1-3.254857-121.234285 60.672 60.672 0 1 1 3.254857 121.234285z m-3.072-117.577143a56.978286 56.978286 0 0 0-17.371428 110.08 56.978286 56.978286 0 1 0 17.371428-110.08z" fill="#FFFFFF" p-id="19453"></path><path d="M397.755506 220.363141m14.236414 5.467698l1.638724 0.629376q14.236414 5.467698 8.768715 19.704112l-55.227687 143.798025q-5.467698 14.236414-19.704113 8.768716l-1.638724-0.629375q-14.236414-5.467698-8.768716-19.704113l55.227688-143.798025q5.467698-14.236414 19.704113-8.768716Z" fill="#1E232A" p-id="19454"></path><path d="M352.914286 401.590857a17.042286 17.042286 0 0 1-6.107429-1.133714l-1.682286-0.621714a17.188571 17.188571 0 0 1-9.801142-21.942858L390.582857 234.057143a17.115429 17.115429 0 0 1 21.942857-9.837714l1.645715 0.658285a17.115429 17.115429 0 0 1 9.837714 21.942857l-55.259429 143.835429a17.115429 17.115429 0 0 1-15.835428 10.934857zM406.528 226.742857a13.421714 13.421714 0 0 0-12.544 8.630857l-55.259429 143.689143a13.531429 13.531429 0 0 0 0.292572 10.276572 13.275429 13.275429 0 0 0 7.314286 7.058285l1.682285 0.658286a13.494857 13.494857 0 0 0 17.334857-7.716571L420.571429 245.504a13.421714 13.421714 0 0 0-7.716572-17.334857l-1.645714-0.621714a13.092571 13.092571 0 0 0-4.681143-0.804572zM459.446857 117.723429s23.625143 10.971429 20.736 34.048" fill="#FFFFFF" p-id="19455"></path><path d="M480.182857 153.6h-0.219428a1.792 1.792 0 0 1-1.572572-2.048c2.669714-21.467429-19.492571-32.036571-19.712-32.109714a1.828571 1.828571 0 0 1-0.877714-2.450286 1.792 1.792 0 0 1 2.413714-0.877714c0.256 0 24.795429 11.812571 21.942857 35.913143a1.865143 1.865143 0 0 1-1.974857 1.572571z" p-id="19456"></path><path d="M433.590857 308.626286l9.545143 5.888a45.750857 45.750857 0 0 1-8.338286 27.355428 41.033143 41.033143 0 0 1-27.721143 16.128z" fill="#FFFFFF" p-id="19457"></path><path d="M442.88 312.612571l-3.401143-2.121142c3.657143-19.712-12.288-28.781714-22.930286-38.656-6.656-6.144-30.573714-19.163429-47.542857-14.628572-22.235429 5.851429 20.736 34.779429 24.064 28.196572 2.56-5.156571-39.570286-22.528-46.043428-3.181715-4.681143 14.116571 35.108571 38.985143 39.021714 27.318857 3.657143-10.971429-40.228571-20.992-45.787429-4.827428-4.608 12.836571 33.901714 41.874286 38.363429 29.513143 2.596571-7.314286-39.899429-23.808-43.885714-8.630857-2.633143 9.801143 22.418286 30.244571 45.019428 36.242285a35.913143 35.913143 0 0 0 25.856-3.401143l7.314286 1.499429" fill="#FFFFFF" p-id="19458"></path><path d="M387.986286 364.690286a35.437714 35.437714 0 0 1-8.777143-1.133715 93.769143 93.769143 0 0 1-32.658286-17.042285c-4.790857-3.876571-15.725714-13.714286-13.750857-21.467429A9.837714 9.837714 0 0 1 340.809143 318.171429l1.609143-0.292572c-3.657143-4.864-5.339429-9.764571-3.913143-13.750857a14.336 14.336 0 0 1 10.971428-8.630857c-3.986286-5.12-5.376-9.874286-4.059428-13.824a14.628571 14.628571 0 0 1 12.909714-9.837714 32.365714 32.365714 0 0 1 6.326857-0.292572 14.372571 14.372571 0 0 1-3.657143-8.228571c0-2.633143 1.28-6.144 7.716572-7.826286 18.029714-4.754286 42.569143 8.886857 49.298286 15.140571 1.718857 1.572571 3.657143 3.145143 5.449142 4.717715 9.764571 8.265143 20.772571 17.590857 18.285715 34.340571l2.377143 1.462857a1.865143 1.865143 0 0 1 0.585142 2.523429 1.792 1.792 0 0 1-2.523428 0.585143l-4.461714-2.742857 0.219428-1.243429c2.889143-15.469714-7.314286-23.954286-16.822857-32.109714-1.901714-1.645714-3.657143-3.254857-5.558857-4.864-6.107429-5.632-29.257143-18.578286-45.897143-14.262857-2.962286 0.768-4.608 1.974857-4.900571 3.657142-0.438857 2.304 1.609143 5.778286 5.376 9.545143 10.569143 1.682286 21.394286 6.619429 24.210285 10.496a3.291429 3.291429 0 0 1 0.548572 3.657143c-0.621714 1.243429-2.194286 2.56-5.997715 1.682286a53.942857 53.942857 0 0 1-20.443428-12.397714 39.021714 39.021714 0 0 0-5.046857-0.365715c-7.899429 0-12.690286 2.486857-14.409143 7.643429-1.024 3.072 0.658286 7.314286 4.717714 11.958857a53.138286 53.138286 0 0 1 21.942857 2.633143c9.289143 3.181714 13.860571 7.972571 12.251429 12.763428a5.997714 5.997714 0 0 1-4.790857 4.059429c-7.826286 1.609143-22.528-6.838857-30.866286-15.542857a11.958857 11.958857 0 0 0-10.130286 6.692571c-1.097143 3.035429 1.060571 7.606857 4.827429 12.251429 11.666286 0.256 27.282286 6.838857 32 12.105143a4.973714 4.973714 0 0 1 1.536 5.156571c-0.694857 1.974857-3.328 6.253714-12.361143 2.998857a63.963429 63.963429 0 0 1-22.820571-16.603428 24.32 24.32 0 0 0-3.657143 0.438857A6.326857 6.326857 0 0 0 336.457143 325.997714c-1.024 3.657143 3.876571 10.715429 12.434286 17.664a88.868571 88.868571 0 0 0 31.451428 16.347429 33.645714 33.645714 0 0 0 24.539429-3.291429l0.548571-0.292571 8.082286 1.645714a1.865143 1.865143 0 0 1 1.426286 2.157714 1.828571 1.828571 0 0 1-2.157715 1.426286l-6.838857-1.389714a40.228571 40.228571 0 0 1-17.956571 4.425143zM350.317714 321.462857a55.698286 55.698286 0 0 0 19.053715 12.873143c2.998857 1.060571 6.729143 1.792 7.68-0.804571 0 0 0-0.585143-0.804572-1.462858-3.84-4.059429-15.908571-9.325714-25.929143-10.605714z m6.473143-23.369143c8.155429 7.570286 20.004571 13.568 25.6 12.434286a2.340571 2.340571 0 0 0 2.048-1.645714c0.841143-2.486857-3.254857-5.814857-9.984-8.155429a50.614857 50.614857 0 0 0-17.664-2.633143z m19.053714-21.028571l0.658286 0.475428c7.058286 5.083429 12.690286 7.094857 14.628572 6.948572a39.606857 39.606857 0 0 0-15.286858-7.424zM818.505143 1000.228571a1.865143 1.865143 0 0 1-1.828572-1.499428 1.865143 1.865143 0 0 1 1.499429-2.121143l181.613714-32.914286a1.828571 1.828571 0 1 1 0.658286 3.657143l-181.613714 32.914286zM795.099429 458.934857H738.742857a1.865143 1.865143 0 0 1-1.828571-1.828571 1.828571 1.828571 0 0 1 1.828571-1.828572h54.162286l-10.276572-69.851428a1.865143 1.865143 0 0 1 1.536-2.084572 1.865143 1.865143 0 0 1 2.084572 1.536l10.752 71.972572a1.792 1.792 0 0 1-0.438857 1.462857 1.792 1.792 0 0 1-1.462857 0.621714z" fill="#1E232A" p-id="19459"></path><path d="M620.726857 266.057143c23.515429 34.962286 17.883429 86.674286-7.899428 115.712l-27.794286-4.461714L602.148571 281.6z" fill="#FFC200" p-id="19460"></path><path d="M539.940571 329.764571l-72.411428-30.500571" fill="#FFFFFF" p-id="19461"></path><path d="M539.940571 331.593143a2.377143 2.377143 0 0 1-0.694857 0l-72.448-30.500572a1.865143 1.865143 0 0 1-0.987428-2.377142 1.901714 1.901714 0 0 1 2.413714-0.987429l72.411429 30.500571a1.792 1.792 0 0 1 0.987428 2.377143 1.828571 1.828571 0 0 1-1.682286 0.987429zM679.168 678.217143a1.828571 1.828571 0 0 1-1.828571-1.718857l-2.011429-36.388572a1.828571 1.828571 0 0 1 1.718857-1.938285 1.755429 1.755429 0 0 1 1.901714 1.718857l2.048 36.388571a1.865143 1.865143 0 0 1-1.755428 1.938286z" fill="#1E232A" p-id="19462"></path><path d="M595.712 311.917714a21.138286 21.138286 0 0 1-10.130286-39.716571 21.174857 21.174857 0 0 1 28.818286 8.484571 20.918857 20.918857 0 0 1 1.718857 16.091429 21.138286 21.138286 0 0 1-10.166857 12.580571 20.918857 20.918857 0 0 1-10.24 2.56z m0-38.619428a17.225143 17.225143 0 0 0-8.338286 2.121143 17.517714 17.517714 0 1 0 23.698286 7.021714 17.444571 17.444571 0 0 0-10.386286-8.448 17.956571 17.956571 0 0 0-5.010285-0.694857zM574.793143 321.536a1.792 1.792 0 0 1-1.572572-0.950857l-14.409142-25.6a1.865143 1.865143 0 0 1 0.731428-2.413714 1.901714 1.901714 0 0 1 2.523429 0.694857l14.372571 25.6a1.828571 1.828571 0 0 1-0.694857 2.486857 1.645714 1.645714 0 0 1-0.950857 0.182857zM561.92 328.923429a1.792 1.792 0 0 1-1.572571-0.950858l-14.409143-25.6a1.828571 1.828571 0 0 1 0.694857-2.486857 1.792 1.792 0 0 1 2.486857 0.694857l14.409143 25.6a1.828571 1.828571 0 0 1-0.694857 2.486858 1.718857 1.718857 0 0 1-0.914286 0.256z" fill="#FFFFFF" p-id="19463"></path><path d="M800.548571 802.230857a1.828571 1.828571 0 0 1-0.329142-3.657143l86.710857-15.579428a1.828571 1.828571 0 1 1 0.621714 3.657143L800.914286 802.230857z" p-id="19464"></path><path d="M535.478857 816.896a1.828571 1.828571 0 0 1 0-3.657143l124.342857-3.254857a1.828571 1.828571 0 1 1 0 3.657143l-124.342857 3.254857z" fill="#1E232A" p-id="19465"></path></svg>